<svg display="none" width="0" height="0" version="1.1" xmlns="http://www.w3.org/2000/svg" xmlns:xlink="http://www.w3.org/1999/xlink">
    <defs>
        <symbol id="arrow-down-cap" viewBox="0 0 512 512">
            <title>arrow-down-cap</title>
            <path d="M408.271,234.667c-11.813,0-22.938,5.208-30.5,14.292l-79.104,94.917V42.667C298.667,19.135,279.521,0,256,0 s-42.667,19.135-42.667,42.667v301.208l-79.104-94.917c-7.563-9.083-18.688-14.292-30.5-14.292    C81.813,234.667,64,252.49,64,274.385v2.938c0,9.406,3.354,18.542,9.458,25.719L247.875,508.24c2.021,2.385,5,3.76,8.125,3.76    s6.104-1.375,8.125-3.76l174.417-205.198c6.104-7.177,9.458-16.313,9.458-25.719v-2.938    C448,252.49,430.188,234.667,408.271,234.667z"/>
        </symbol>
    </defs>

    <defs>
        <symbol id="triangular-1">
            <title>triangular-1</title>
            <polygon points="425,150 0,150 425,0"/>
        </symbol>
    </defs>

    <defs>
        <symbol id="triangular-2" viewBox="0 0 24 24">
            <title>triangular-2</title>
            <polygon points="24,12 0,24 0,0"/>
        </symbol>
    </defs>

    <defs>
        <symbol id="triangular-3" viewBox="0 0 64 64">
            <title>triangular-3</title>
            <polygon points="30,4 4,60 60,60"/>
        </symbol>
    </defs>

    <defs>
        <symbol id="rectangle-1" viewBox="0 0 60 60">
            <title>rectangle-1</title>
            <rect x="0" y="0" width="60" height="60"/>
        </symbol>
    </defs>

    <defs>
        <symbol id="circle-1" viewBox="0 0 64 64">
            <title>circle-1</title>
            <circle cx="32" cy="32" r="28"/>
        </symbol>
    </defs>
<!--
    <defs>
        <symbol id="circle-2" viewBox="0 0 64 64">
            <title>circle-2</title>
            <circle cx="32" cy="32" r="28"/>
        </symbol>
    </defs> -->

    <defs>
        <symbol id="divider-shape" viewBox="0 0 290 40">
            <title>divider-shape</title>
            <rect y="20" width="290" height="2"/>
            <polygon points="232.799,11.515 221.485,0.201 204.5,17.187 187.516,0.201 187.5,0.216 187.485,0.201 170.5,17.187 153.516,0.201
                153.5,0.216 153.485,0.201 136.5,17.187 119.515,0.201 119.5,0.216 119.485,0.201 102.5,17.187 85.515,0.201 85.5,0.216
                85.485,0.201 57.201,28.485 68.515,39.799 85.5,22.813 102.486,39.799 102.5,39.784 102.515,39.799 119.5,22.813 136.486,39.799
                136.5,39.784 136.515,39.799 153.5,22.813 170.486,39.799 170.5,39.785 170.515,39.799 187.5,22.813 204.486,39.799 204.5,39.785
                204.515,39.799 "/>
            <!-- <g>
                <rect x="32" y="-61" transform="matrix(0.7071 0.7071 -0.7071 0.7071 -17.2757 -40.2929)" width="16" height="40"/>
                <rect x="168" y="-61" transform="matrix(0.7071 0.7071 -0.7071 0.7071 22.5578 -136.4594)" width="16" height="40"/>
                <rect x="49.001" y="-61" transform="matrix(-0.7071 0.7071 -0.7071 -0.7071 68.3145 -110.2968)" width="16" height="40"/>
                <rect x="66" y="-61" transform="matrix(0.7071 0.7071 -0.7071 0.7071 -7.3173 -64.3345)" width="16" height="40"/>
                <rect x="83.001" y="-61" transform="matrix(-0.7071 0.7071 -0.7071 -0.7071 126.3562 -134.3384)" width="16" height="40"/>
                <rect x="100" y="-61" transform="matrix(0.7071 0.7071 -0.7071 0.7071 2.6411 -88.3762)" width="16" height="40"/>
                <rect x="117.001" y="-61" transform="matrix(-0.7071 0.7071 -0.7071 -0.7071 184.3978 -158.3801)" width="16" height="40"/>
                <rect x="134" y="-61" transform="matrix(0.7071 0.7071 -0.7071 0.7071 12.5995 -112.4178)" width="16" height="40"/>
                <rect x="151" y="-61" transform="matrix(-0.7071 0.7071 -0.7071 -0.7071 242.442 -182.4197)" width="16" height="39.999"/>
            </g> -->
        </symbol>
    </defs>

    <defs>
        <symbol id="divider-shape-2" viewBox="0 0 290 40">
            <title>divider-shape-2</title>
            <polygon points="232.799,11.515 221.485,0.201 204.5,17.187 187.516,0.201 187.5,0.216 187.485,0.201 170.5,17.187 153.516,0.201
                153.5,0.216 153.485,0.201 136.5,17.187 119.515,0.201 119.5,0.216 119.485,0.201 102.5,17.187 85.515,0.201 85.5,0.216
                85.485,0.201 57.201,28.485 68.515,39.799 85.5,22.813 102.486,39.799 102.5,39.784 102.515,39.799 119.5,22.813 136.486,39.799
                136.5,39.784 136.515,39.799 153.5,22.813 170.486,39.799 170.5,39.785 170.515,39.799 187.5,22.813 204.486,39.799 204.5,39.785
                204.515,39.799 "/>
        </symbol>
    </defs>
</svg>
